<?xml version="1.0" encoding="iso-8859-1"?>
<!-- Generator: Adobe Illustrator 19.0.0, SVG Export Plug-In . SVG Version: 6.00 Build 0)  -->
<svg xmlns="http://www.w3.org/2000/svg" xmlns:xlink="http://www.w3.org/1999/xlink" version="1.1" id="Layer_1" x="0px" y="0px" viewBox="0 0 502 502" style="enable-background:new 0 0 502 502;" xml:space="preserve" width="512px" height="512px">
<g>
	<g>
		<g>
			<path d="M459.293,235.969H231.644c-23.549,0-42.707-19.158-42.707-42.707s19.158-42.707,42.707-42.707h227.649     c23.549,0,42.707,19.158,42.707,42.707S482.842,235.969,459.293,235.969z M231.644,170.555     c-12.521,0-22.707,10.187-22.707,22.707s10.187,22.707,22.707,22.707h227.649c12.521,0,22.707-10.187,22.707-22.707     s-10.187-22.707-22.707-22.707H231.644z" fill="#FFFFFF"/>
		</g>
	</g>
	<g>
		<g>
			<path d="M459.293,351.261H42.707C19.158,351.261,0,332.103,0,308.554s19.158-42.707,42.707-42.707h416.586     c23.549,0,42.707,19.158,42.707,42.707S482.842,351.261,459.293,351.261z M42.707,285.847C30.187,285.847,20,296.034,20,308.554     s10.187,22.707,22.707,22.707h416.586c12.521,0,22.707-10.187,22.707-22.707s-10.187-22.707-22.707-22.707H42.707z" fill="#FFFFFF"/>
		</g>
	</g>
	<g>
		<g>
			<path d="M459.293,120.875H231.644c-23.549,0-42.707-19.158-42.707-42.707s19.158-42.707,42.707-42.707h227.649     C482.842,35.461,502,54.62,502,78.168S482.842,120.875,459.293,120.875z M231.644,55.461c-12.521,0-22.707,10.187-22.707,22.707     s10.187,22.707,22.707,22.707h227.649c12.521,0,22.707-10.187,22.707-22.707s-10.187-22.707-22.707-22.707H231.644z" fill="#FFFFFF"/>
		</g>
	</g>
	<g>
		<g>
			<path d="M459.293,466.554H42.707C19.158,466.554,0,447.396,0,423.847s19.158-42.707,42.707-42.707h416.586     c23.549,0,42.707,19.158,42.707,42.707S482.842,466.554,459.293,466.554z M42.707,401.14C30.187,401.14,20,411.326,20,423.847     s10.187,22.707,22.707,22.707h416.586c12.521,0,22.707-10.187,22.707-22.707s-10.187-22.707-22.707-22.707H42.707z" fill="#FFFFFF"/>
		</g>
	</g>
	<g>
		<path d="M309.842,84.521h-76.379c-5.523,0-10-4.477-10-10s4.477-10,10-10h76.379c5.523,0,10,4.477,10,10    S315.365,84.521,309.842,84.521z" fill="#FFFFFF"/>
	</g>
	<g>
		<path d="M356.45,84.521h-13.901c-5.523,0-10-4.477-10-10s4.477-10,10-10h13.901c5.523,0,10,4.477,10,10    S361.973,84.521,356.45,84.521z" fill="#FFFFFF"/>
	</g>
	<g>
		<g>
			<path d="M93.241,184.79c-5.523,0-10-4.477-10-10V45.446c0-5.523,4.477-10,10-10s10,4.477,10,10V174.79     C103.241,180.313,98.764,184.79,93.241,184.79z" fill="#FFFFFF"/>
		</g>
		<g>
			<path d="M93.241,235.835c-2.559,0-5.119-0.976-7.071-2.929l-70.1-70.1c-3.905-3.905-3.905-10.237,0-14.143s10.237-3.905,14.143,0     l63.029,63.029l63.029-63.029c3.905-3.905,10.237-3.905,14.143,0s3.905,10.237,0,14.143l-70.1,70.1     C98.36,234.859,95.8,235.835,93.241,235.835z" fill="#FFFFFF"/>
		</g>
	</g>
</g>
<g>
</g>
<g>
</g>
<g>
</g>
<g>
</g>
<g>
</g>
<g>
</g>
<g>
</g>
<g>
</g>
<g>
</g>
<g>
</g>
<g>
</g>
<g>
</g>
<g>
</g>
<g>
</g>
<g>
</g>
</svg>
