<?xml version="1.0" encoding="iso-8859-1"?>
<!-- Generator: Adobe Illustrator 19.0.0, SVG Export Plug-In . SVG Version: 6.00 Build 0)  -->
<svg version="1.1" id="Capa_1" xmlns="http://www.w3.org/2000/svg" xmlns:xlink="http://www.w3.org/1999/xlink" x="0px" y="0px"
	 viewBox="0 0 512 512" style="enable-background:new 0 0 512 512;" xml:space="preserve">
<g>
	<g>
		<g>
			<path d="M485.087,443.611c-12.238,0-22.587,8.213-25.843,19.414h-70.885c-3.094-16.865-16.417-30.187-33.282-33.282V328.664
				c39.59-1.79,78.652-17.763,108.817-47.928C494.916,249.714,512,208.406,512,164.421c0-43.985-17.084-85.294-48.106-116.315
				c-64.138-64.137-168.497-64.137-232.635,0c-29.252,29.252-46.104,67.651-47.933,108.815H82.257
				c-3.094-16.865-16.417-30.187-33.282-33.282V52.757C60.176,49.5,68.389,39.151,68.389,26.914C68.389,12.074,56.316,0,41.475,0
				S14.561,12.074,14.561,26.914c0,12.238,8.213,22.587,19.414,25.843v70.882C14.675,127.18,0,144.113,0,164.421
				c0,22.869,18.605,41.475,41.475,41.475c20.307,0,37.241-14.675,40.782-33.975h101.069c1.497,33.706,13.076,65.552,33.28,92.046
				l-58.976,58.975c-8.954-0.419-18.047,2.783-24.87,9.605L5.071,460.234C1.801,463.504,0,467.853,0,472.479
				c0,4.626,1.801,8.975,5.071,12.245l22.21,22.209c3.267,3.268,7.611,5.067,12.231,5.067s8.965-1.8,12.232-5.068l27.266-27.265
				c2.929-2.928,2.929-7.677,0-10.606c-2.928-2.93-7.677-2.929-10.606,0l-27.267,27.266C40.58,496.883,39.946,497,39.512,497
				c-0.434,0-1.068-0.117-1.625-0.674l-22.209-22.209c-0.903-0.903-0.903-2.374,0-3.277l127.689-127.686
				c7.007-7.008,18.411-7.007,25.438,0.018c3.403,3.403,5.277,7.929,5.277,12.745c0,4.816-1.874,9.342-5.277,12.745L88.06,449.405
				c-2.929,2.928-2.929,7.677,0,10.606c2.928,2.93,7.677,2.929,10.606,0l80.745-80.743c6.236-6.236,9.671-14.529,9.671-23.351
				c0-0.552-0.013-1.102-0.04-1.649c0.264-0.202,0.522-0.416,0.763-0.657l58.23-58.229c27.209,20.71,59.443,31.808,92.041,33.282
				v101.079c-19.3,3.541-33.975,20.474-33.975,40.782c0,22.87,18.606,41.475,41.475,41.475c20.307,0,37.241-14.675,40.782-33.975
				h70.885c3.257,11.201,13.606,19.414,25.843,19.414c14.84,0,26.914-12.074,26.914-26.914
				C512,455.685,499.926,443.611,485.087,443.611z M29.561,26.914C29.561,20.345,34.906,15,41.475,15
				c6.569,0,11.914,5.345,11.914,11.914c0,6.569-5.345,11.914-11.914,11.914C34.905,38.828,29.561,33.483,29.561,26.914z
				 M41.475,190.896C26.876,190.896,15,179.019,15,164.421c0-14.598,11.875-26.475,26.474-26.475s26.475,11.877,26.475,26.475
				C67.949,179.019,56.074,190.896,41.475,190.896z M183.958,338.246c-1.295-2.035-2.815-3.949-4.564-5.698
				c-1.744-1.744-3.64-3.243-5.641-4.514l52.518-52.518c1.622,1.768,3.28,3.512,4.988,5.22c1.711,1.711,3.456,3.366,5.223,4.986
				L183.958,338.246z M241.865,270.128c-28.189-28.188-43.713-65.729-43.713-105.708s15.525-77.52,43.713-105.708
				c29.145-29.144,67.428-43.715,105.711-43.715c38.283,0,76.566,14.572,105.711,43.716C481.476,86.901,497,124.442,497,164.421
				c0,39.979-15.524,77.52-43.713,105.708C394.998,328.417,300.154,328.417,241.865,270.128z M347.576,497
				c-14.598,0-26.475-11.876-26.475-26.475s11.876-26.475,26.475-26.475s26.475,11.877,26.475,26.475
				C374.051,485.124,362.174,497,347.576,497z M485.086,482.439c-6.569,0-11.914-5.345-11.914-11.914
				c0-6.569,5.345-11.914,11.914-11.914c6.569,0,11.914,5.345,11.914,11.914C497,477.095,491.655,482.439,485.086,482.439z"/>
			<path d="M262.68,79.528c46.811-46.811,122.978-46.812,169.791,0c40.519,40.518,46.717,104.405,14.738,151.908
				c-2.313,3.436-1.403,8.097,2.033,10.41c1.286,0.864,2.742,1.279,4.182,1.279c2.412-0.001,4.781-1.162,6.229-3.313
				c35.976-53.442,29.005-125.312-16.575-170.891c-52.66-52.659-138.345-52.659-191.004,0c-2.929,2.928-2.929,7.677,0,10.606
				C255.002,82.456,259.751,82.456,262.68,79.528z"/>
			<path d="M448.436,153.106c0-20.193-16.428-36.621-36.621-36.621s-36.621,16.428-36.621,36.621v19.414
				c0,20.193,16.428,36.621,36.621,36.621s36.621-16.428,36.621-36.621V153.106z M433.437,172.519
				c0,11.922-9.7,21.621-21.622,21.621s-21.621-9.699-21.621-21.621v-19.414c0-11.922,9.699-21.621,21.621-21.621
				s21.621,9.699,21.621,21.621h0.001V172.519z"/>
			<path d="M292.35,153.105v19.414c0,20.193,16.429,36.621,36.622,36.621s36.621-16.428,36.621-36.621v-19.414
				c0-20.193-16.428-36.621-36.621-36.621C308.778,116.484,292.35,132.913,292.35,153.105z M350.592,153.105v19.414
				c0,11.922-9.699,21.621-21.621,21.621s-21.621-9.699-21.621-21.621v-19.414c0-11.922,9.7-21.621,21.622-21.621
				C340.894,131.484,350.592,141.184,350.592,153.105z"/>
			<path d="M248.689,146.859c2.799,3.053,7.544,3.258,10.597,0.458l6.845-6.278v57.687c0,4.142,3.358,7.5,7.5,7.5
				c4.142,0,7.5-3.358,7.5-7.5v-74.742c0-2.975-1.758-5.668-4.481-6.866c-2.723-1.198-5.896-0.672-8.088,1.338l-19.414,17.806
				C246.095,139.063,245.89,143.807,248.689,146.859z"/>
			<path d="M443.078,259.921c2.929-2.929,2.929-7.677,0-10.606c-2.929-2.93-7.678-2.929-10.606,0
				c-46.812,46.812-122.979,46.811-169.791,0c-40.154-40.153-46.599-103.67-15.324-151.029c2.283-3.457,1.331-8.109-2.125-10.391
				c-3.456-2.282-8.109-1.331-10.391,2.125c-35.184,53.278-27.936,124.732,17.234,169.901
				c26.333,26.333,60.912,39.494,95.502,39.494C382.158,299.416,416.751,286.248,443.078,259.921z"/>
		</g>
	</g>
</g>
<g>
</g>
<g>
</g>
<g>
</g>
<g>
</g>
<g>
</g>
<g>
</g>
<g>
</g>
<g>
</g>
<g>
</g>
<g>
</g>
<g>
</g>
<g>
</g>
<g>
</g>
<g>
</g>
<g>
</g>
</svg>
